
<svg xmlns="http://www.w3.org/2000/svg" viewBox="0 0 120 40" width="120" height="40">
  <path d="M39.7 14.9c-.4.3-.7.9-.7 1.5 0 .6.2 1.1.7 1.5.4.3 1 .5 1.8.5h2.4v-4h-2.4c-.8 0-1.4.2-1.8.5zm-6.3 5.9h2.1v-7.8h-2.1v7.8zm4.2 0h2.1v-1.5c.6.6 1.3.9 2.2.9.9 0 1.6-.3 2.1-.8.5-.5.8-1.2.8-2v-4.4h-2.1v4c0 .5-.1.8-.4 1.1-.2.3-.6.4-1 .4s-.8-.1-1.1-.4c-.3-.3-.4-.6-.4-1.1v-4h-2.1v7.8zm11.9-7.8h-2.1v7.8h2.1v-7.8zm-19.9 12.9h2.1v-7.8h-2.1v7.8zm4.2 0h2.1v-1.5c.6.6 1.3.9 2.2.9.9 0 1.6-.3 2.1-.8.5-.5.8-1.2.8-2v-4.4h-2.1v4c0 .5-.1.8-.4 1.1-.2.3-.6.4-1 .4s-.8-.1-1.1-.4c-.3-.3-.4-.6-.4-1.1v-4h-2.1v7.8zm11.9-7.8h-2.1v7.8h2.1v-7.8z" fill="#000"/>
</svg>
