
<svg xmlns="http://www.w3.org/2000/svg" viewBox="0 0 120 40" width="120" height="40">
  <path d="M40.7 19.6c0-3.4 2.9-5.2 5.2-5.2 1.5 0 2.8.6 3.6 1.4l-1 1c-.6-.6-1.5-1-2.6-1-2.1 0-3.8 1.7-3.8 3.8s1.7 3.8 3.8 3.8c1.4 0 2.2-.6 2.7-1.1.4-.4.7-1 .8-1.9h-3.5v-1.4h4.9c0 .3 0 .5 0 .8 0 1.2-.3 2.7-1.4 3.7-.9.9-2 1.4-3.5 1.4-2.7 0-5.2-2.2-5.2-5.3zm14.3-3.5h-4.6v3.3h4.2v1.4h-4.2v3.3h4.6v1.4h-6.2v-10.8h6.2v1.4zm6.8 9.4h-1.6v-9.4h-3.5v-1.4h8.6v1.4h-3.5v9.4zm8.9 0V15.1h1.6v10.8h-1.6zm8.7 0h-1.6v-9.4h-3.5v-1.4h8.6v1.4h-3.5v9.4zm11.2 0V15.1h1.6v10.8h-1.6zm8.7-1.4h4.6v1.4h-6.2V15.1h1.6v9.4z" fill="#000"/>
</svg>
